# xmcd
#
# Track frame offsets: 
#        150
#        17252
#        34915
#        54137
#        70590
#        100097
#        121652
#        134135
#        155147
#        173937
#        190177
#
# Disc length: 2745 seconds
#
# Revision: 0
# Processed by: cddbd v1.5.2PL0 Copyright (c) Steve Scherf et al.
# Submitted via: ExactAudioCopy v0.99pb5
#
DISCID=8a0ab70b
DTITLE=Midge Marsden - Burning Rain
DYEAR=1990
DGENRE=Blues
TTITLE0=Burning Rain
TTITLE1=Little Ray
TTITLE2=Elle
TTITLE3=Shufflin' Sugar
TTITLE4=Muscles
TTITLE5=Struck down by the Blues
TTITLE6=I wanna be loved
TTITLE7=Strangers Girl
TTITLE8=Nadine
TTITLE9=Dailight Robbery
TTITLE10=Another man done gone
EXTD=
EXTT0=
EXTT1=
EXTT2=
EXTT3=
EXTT4=
EXTT5=
EXTT6=
EXTT7=
EXTT8=
EXTT9=
EXTT10=
PLAYORDER=
